# xmcd CD database file
#
# Track frame offsets:
#	150
#	14951
#	26213
#	39687
#	55938
#	84773
#	99034
#	111798
#	124392
#	138089
#	151551
#	165887
#	181879
#	194832
#	207856
#	220847
#	235041
#	248432
#	261608
#	275415
#
# Disc length: 3868 seconds
#
# Revision: 1
# Processed by: cddbd v1.5.2PL0 Copyright (c) Steve Scherf et al.
# Submitted via: CDex 1.51
#
DISCID=0f0f1a14
DTITLE=Various Artist - Essential Jazz ~ Les Grands Standards  [CD 1-4]
DYEAR=2008
DGENRE=Jazz
TTITLE0=Sidney Bechet - Petite Fleur
TTITLE1=Django Reinhardt - I'll See You In My Dreams
TTITLE2=Charlie Parker - Night in Tunisia
TTITLE3=Errol Garner - In The Mood For Love
TTITLE4=Gerry Mulligan and Astor Piazzola - Years Ago
TTITLE5=Milles Davis - Venus De Milo
TTITLE6=Benny Goodman - Stompin At The Savoy
TTITLE7=Charlie Christian - Solo Flight
TTITLE8=Count Basie - Jumpin At The Wood Side
TTITLE9=Dexter Gordon - If I Had You
TTITLE10=Lionel Hampton - Flying Home
TTITLE11=Fester Young - Almost Like Being in love
TTITLE12=Bud Powell - Somebody Loves Me
TTITLE13=Duke Ellington and His Orchestra - Take The Train
TTITLE14=Dizzy Gillespie - Caravan
TTITLE15=Thelonious Monk - Round Midnight
TTITLE16=Coleman Hawkins - Body and Soul
TTITLE17=Oscar Piterson - Fascinating Rhythm
TTITLE18=Teddy Wilson - The Way You Look Tonight
TTITLE19=Stan Getz - I've Got You Under My Skin
EXTD=YEAR: 2008
EXTT0=
EXTT1=
EXTT2=
EXTT3=
EXTT4=
EXTT5=
EXTT6=
EXTT7=
EXTT8=
EXTT9=
EXTT10=
EXTT11=
EXTT12=
EXTT13=
EXTT14=
EXTT15=
EXTT16=
EXTT17=
EXTT18=
EXTT19=
PLAYORDER=
